<mxfile host="app.diagrams.net" modified="2024-01-05T12:26:16.447Z" agent="Mozilla/5.0 (Windows NT 10.0; Win64; x64) AppleWebKit/537.36 (KHTML, like Gecko) Chrome/119.0.0.0 Safari/537.36" version="22.1.16" etag="9xg4ERwna9z_yTJgyqsW" type="github">
  <diagram name="第 1 页" id="RuDj9hzkocVph1lIm1Tf">
    <mxGraphModel>
      <root>
        <mxCell id="0" />
        <mxCell id="1" parent="0" />
      </root>
    </mxGraphModel>
  </diagram>
</mxfile>
